<svg xmlns="http://www.w3.org/2000/svg" width="80" height="80" viewBox="0 0 80 80" fill="none"><path fill-rule="evenodd" clip-rule="evenodd" d="M6.0419 50.1517H4.53687V45.9942H6.0419C7.70855 45.9942 8.54152 46.6872 8.54152 48.073C8.54152 49.459 7.70855 50.1517 6.0419 50.1517ZM7.22267 42.5H2.251e-10V59.1745H4.53687V53.6457H7.22267C9.18197 53.6457 10.6835 53.1595 11.7251 52.1862C12.7668 51.2132 13.2878 49.842 13.2878 48.073C13.2878 46.3037 12.7668 44.9327 11.7251 43.9595C10.6835 42.9865 9.18197 42.5 7.22267 42.5Z" fill="#007DFA"></path><path fill-rule="evenodd" clip-rule="evenodd" d="M23.6467 54.5057C23.4995 54.8155 23.3067 55.0885 23.0677 55.3242C22.8285 55.5602 22.543 55.7442 22.2112 55.8767C21.8792 56.0097 21.5282 56.076 21.1582 56.076C20.772 56.076 20.4132 56.0097 20.0815 55.8767C19.7495 55.7442 19.4642 55.5602 19.225 55.3242C18.9857 55.0885 18.7967 54.812 18.6577 54.4947C18.519 54.178 18.4495 53.8352 18.4495 53.4665C18.4495 53.1127 18.519 52.7845 18.6577 52.4825C18.7967 52.1805 18.9857 51.9112 19.225 51.6752C19.4642 51.4397 19.7495 51.255 20.0815 51.1222C20.4132 50.9897 20.772 50.9232 21.1582 50.9232C21.5282 50.9232 21.8792 50.9897 22.2112 51.1222C22.543 51.255 22.8285 51.4397 23.0677 51.6752C23.3067 51.9112 23.4995 52.1875 23.6467 52.5045C23.7932 52.8217 23.8662 53.157 23.8662 53.5107C23.8662 53.8645 23.7932 54.1965 23.6467 54.5057ZM23.7275 48.9552C22.755 47.9675 21.5282 47.4735 20.0472 47.4735C19.1675 47.4735 18.3642 47.632 17.6392 47.9487C16.9137 48.2662 16.2887 48.6975 15.7642 49.2427C15.239 49.7882 14.8301 50.4255 14.5371 51.1555C14.2438 51.885 14.0973 52.6555 14.0973 53.4665C14.0973 54.3367 14.248 55.14 14.5484 55.8767C14.8498 56.614 15.2702 57.2557 15.8107 57.801C16.3502 58.3465 16.9832 58.7702 17.7087 59.0725C18.4335 59.3745 19.229 59.5257 20.0932 59.5257C21.621 59.5257 22.8325 58.9877 23.7275 57.9112V59.172H27.9407V47.8272H23.7275V48.9552Z" fill="#007DFA"></path><path fill-rule="evenodd" clip-rule="evenodd" d="M37.1538 53.6414L33.9821 47.8249H29.1211L34.8618 57.6219L30.8108 64.8314H35.5103L45.0483 47.8249H40.2328L37.1538 53.6414Z" fill="#007DFA"></path><path d="M8.59219 24.7934L7.43262 24.4454C6.64498 24.1898 5.41586 23.7948 5.41586 22.7731C5.41586 21.7973 6.52894 21.3095 7.36346 21.3095C7.77534 21.3095 8.18107 21.3731 8.57067 21.4885C9.73216 21.8331 10.9736 21.3061 11.5265 20.227L12.1723 18.9655C12.18 18.9517 12.1742 18.9336 12.1604 18.9263C10.6093 18.0516 8.46655 17.5 6.71413 17.5C3.21353 17.5 0.686539 19.8228 0.686539 23.3768C0.686539 26.7682 2.56459 27.5116 5.41586 28.3242C6.38985 28.603 8.17454 29.0445 8.17454 30.3222C8.17454 31.5529 7.0388 32.0872 5.97221 32.0872C4.41882 32.0872 3.07483 31.2742 1.9387 30.2756L0.0034012 33.9219C-0.0035147 33.9354 0.00032732 33.9519 0.0130065 33.9608C1.79385 35.2057 3.94162 35.9433 6.13473 35.9433C7.89637 35.9433 9.72793 35.4552 11.0961 34.2942C12.487 33.1093 12.9043 31.3204 12.9043 29.5788C12.9043 26.7444 11.0262 25.514 8.59219 24.7934Z" fill="#007DFA"></path><path d="M20.137 26.5332C22.2241 26.5332 22.0381 28.5304 22.0381 29.6691V35.4457C22.0381 35.4623 22.0516 35.4758 22.0681 35.4758H23.7456C25.133 35.4758 26.2576 34.3494 26.2576 32.9589V28.1127C26.2576 25.1858 24.9824 23.1648 21.7834 23.1648C20.1424 23.1648 18.9621 23.6499 17.99 25.0796C17.9842 25.0877 17.9754 25.0931 17.9654 25.0931C17.9489 25.0931 17.9347 25.0796 17.9347 25.063V23.5898C17.9347 23.5736 17.9212 23.5598 17.9043 23.5598H13.7452C13.7287 23.5598 13.7152 23.5736 13.7152 23.5898V35.4457C13.7152 35.4623 13.7287 35.4758 13.7452 35.4758H15.4227C16.8105 35.4758 17.9347 34.3494 17.9347 32.9589V29.2976C17.9347 27.8105 18.4215 26.5332 20.137 26.5332Z" fill="#007DFA"></path><path d="M34.1294 32.2022C32.4139 32.2022 31.4168 31.0404 31.4168 29.531C31.4168 28.0678 32.4139 26.8367 34.1294 26.8367C35.8453 26.8367 36.842 28.0678 36.842 29.531C36.842 31.0404 35.8453 32.2022 34.1294 32.2022ZM36.7325 23.5614C36.7163 23.5614 36.7025 23.5749 36.7025 23.5915V24.6416C36.7025 24.6701 36.6683 24.6824 36.6502 24.6617C35.765 23.6577 34.3576 23.1661 33.0167 23.1661C29.4927 23.1661 27.0586 26.0933 27.0586 29.5079C27.0586 32.9225 29.5392 35.872 33.0632 35.872C34.4487 35.872 35.9033 35.3423 36.6479 34.167C36.6529 34.1586 36.6629 34.1532 36.6725 34.1532C36.6894 34.1532 36.7025 34.167 36.7025 34.1832V35.4474C36.7025 35.464 36.7163 35.4774 36.7325 35.4774H38.41C39.7977 35.4774 40.9223 34.3507 40.9223 32.9606V23.5915C40.9223 23.5749 40.9093 23.5614 40.8924 23.5614H36.7325Z" fill="#007DFA"></path><path d="M49.0064 32.2023C47.2901 32.2023 46.2934 31.0405 46.2934 29.5311C46.2934 28.0678 47.2901 26.8368 49.0064 26.8368C50.7219 26.8368 51.7186 28.0678 51.7186 29.5311C51.7186 31.0405 50.7219 32.2023 49.0064 32.2023ZM50.0726 23.1662C48.6867 23.1662 47.2547 23.7198 46.4878 24.8954C46.4825 24.9035 46.4725 24.9085 46.4632 24.9085C46.4463 24.9085 46.4329 24.8954 46.4329 24.8785V23.5615H42.2134V40.5028H43.9209C45.3083 40.5028 46.4329 39.376 46.4329 37.9859V34.3496L46.4394 34.3473C47.3439 35.3867 48.7543 35.8721 50.1191 35.8721C53.6427 35.8721 56.0771 32.9918 56.0771 29.5542C56.0771 26.1396 53.6197 23.1662 50.0726 23.1662Z" fill="#007DFA"></path><path d="M63.6576 26.8368C65.3731 26.8368 66.3705 28.0678 66.3705 29.5311C66.3705 31.0409 65.3731 32.2023 63.6576 32.2023C61.9417 32.2023 60.945 31.0409 60.945 29.5311C60.945 28.0678 61.9417 26.8368 63.6576 26.8368ZM58.5725 40.5028C59.9595 40.5028 61.0845 39.376 61.0845 37.9863V34.4185C61.0845 34.3908 61.1183 34.3785 61.1363 34.3992C62.0427 35.4036 63.4286 35.8725 64.7703 35.8725C68.2943 35.8725 70.7283 32.9918 70.7283 29.5546C70.7283 26.1396 68.2713 23.1666 64.7238 23.1666C63.3383 23.1666 61.9063 23.7197 61.1394 24.8954C61.134 24.9039 61.1244 24.9085 61.1144 24.9085C61.0979 24.9085 61.0845 24.8954 61.0845 24.8785V23.5916C61.0845 23.575 61.071 23.5615 61.0545 23.5615H56.8946C56.8781 23.5615 56.8646 23.575 56.8646 23.5916V40.4727C56.8646 40.4897 56.8781 40.5028 56.8946 40.5028H58.5725Z" fill="#007DFA"></path><path d="M75.1861 28.9655C76.3369 28.9655 77.3412 28.186 77.6286 27.0696L80 17.9634H75.6687L72.809 28.9655H75.1861Z" fill="#007DFA"></path><path d="M74.2332 35.8707C75.7063 35.8707 76.9023 34.6719 76.9023 33.196C76.9023 31.7201 75.7063 30.5213 74.2332 30.5213C72.7593 30.5213 71.5632 31.7201 71.5632 33.196C71.5632 34.6719 72.7593 35.8707 74.2332 35.8707Z" fill="#007DFA"></path><path d="M72.9226 18.185H72.9284L73.2592 19.1097H73.4063L73.7379 18.185H73.7437V19.1097H73.9926V17.964H73.5908L73.3329 18.6419L73.0751 17.964H72.6732V19.1097H72.9226V18.185Z" fill="#007DFA"></path><path d="M71.9117 19.111H72.1864V18.1863H72.5345V17.965H71.5632V18.1863H71.9117V19.111Z" fill="#007DFA"></path></svg>